name C:\Users\u0101727\Documents\MyRepositories\upper-imu-dc\Results\main_tracking\Case_43\FLX01_angularVelocities_groundFrame.mot
datacolumns 4
datarows 70
range 2.01000000 2.70000000
endheader 
time	radius_imu_x	radius_imu_y	radius_imu_z	
          2.01000000	         -0.74436135	          0.54564771	          0.96525884	
          2.02000000	         -0.74707545	          0.50555653	          0.96635234	
          2.03000000	         -0.74900795	          0.46582822	          0.96677352	
          2.04000000	         -0.75001961	          0.42665793	          0.96651522	
          2.05000000	         -0.75001160	          0.38821449	          0.96558018	
          2.06000000	         -0.74893147	          0.35063676	          0.96398055	
          2.07000000	         -0.74677890	          0.31402882	          0.96173735	
          2.08000000	         -0.74360900	          0.27845440	          0.95888010	
          2.09000000	         -0.73953121	          0.24393224	          0.95544603	
          2.10000000	         -0.73470234	          0.21043451	          0.95147874	
          2.11000000	         -0.72931320	          0.17789015	          0.94702614	
          2.12000000	         -0.72356958	          0.14619389	          0.94213791	
          2.13000000	         -0.71766988	          0.11522044	          0.93686316	
          2.14000000	         -0.71178307	          0.08484137	          0.93124926	
          2.15000000	         -0.70603191	          0.05494105	          0.92534205	
          2.16000000	         -0.70048514	          0.02542795	          0.91918666	
          2.17000000	         -0.69515952	         -0.00375961	          0.91282800	
          2.18000000	         -0.69002841	         -0.03265219	          0.90631006	
          2.19000000	         -0.68503327	         -0.06125023	          0.89967420	
          2.20000000	         -0.68009473	         -0.08952566	          0.89295682	
          2.21000000	         -0.67512200	         -0.11742412	          0.88618722	
          2.22000000	         -0.67002147	         -0.14486893	          0.87938638	
          2.23000000	         -0.66470536	         -0.17176833	          0.87256712	
          2.24000000	         -0.65910003	         -0.19802568	          0.86573521	
          2.25000000	         -0.65315201	         -0.22355067	          0.85889094	
          2.26000000	         -0.64683007	         -0.24826856	          0.85203013	
          2.27000000	         -0.64012293	         -0.27212531	          0.84514434	
          2.28000000	         -0.63303364	         -0.29508759	          0.83822040	
          2.29000000	         -0.62557187	         -0.31713766	          0.83124016	
          2.30000000	         -0.61774610	         -0.33826447	          0.82418102	
          2.31000000	         -0.60955716	         -0.35845299	          0.81701766	
          2.32000000	         -0.60099441	         -0.37767405	          0.80972476	
          2.33000000	         -0.59203548	         -0.39587708	          0.80228034	
          2.34000000	         -0.58265022	         -0.41298856	          0.79466911	
          2.35000000	         -0.57280813	         -0.42891687	          0.78688528	
          2.36000000	         -0.56248717	         -0.44356268	          0.77893427	
          2.37000000	         -0.55168156	         -0.45683169	          0.77083296	
          2.38000000	         -0.54040752	         -0.46864692	          0.76260882	
          2.39000000	         -0.52870662	         -0.47895809	          0.75429808	
          2.40000000	         -0.51664639	         -0.48774648	          0.74594341	
          2.41000000	         -0.50431820	         -0.49502492	          0.73759128	
          2.42000000	         -0.49183255	         -0.50083416	          0.72928964	
          2.43000000	         -0.47931252	         -0.50523731	          0.72108581	
          2.44000000	         -0.46688592	         -0.50831338	          0.71302510	
          2.45000000	         -0.45467693	         -0.51015058	          0.70514997	
          2.46000000	         -0.44279787	         -0.51083976	          0.69749987	
          2.47000000	         -0.43134197	         -0.51046840	          0.69011143	
          2.48000000	         -0.42037794	         -0.50911614	          0.68301869	
          2.49000000	         -0.40994738	         -0.50685313	          0.67625304	
          2.50000000	         -0.40006537	         -0.50374174	          0.66984289	
          2.51000000	         -0.39072418	         -0.49984121	          0.66381298	
          2.52000000	         -0.38189903	         -0.49521312	          0.65818341	
          2.53000000	         -0.37355494	         -0.48992596	          0.65296839	
          2.54000000	         -0.36565362	         -0.48405788	          0.64817477	
          2.55000000	         -0.35815924	         -0.47769726	          0.64380065	
          2.56000000	         -0.35104251	         -0.47094123	          0.63983442	
          2.57000000	         -0.34428246	         -0.46389277	          0.63625463	
          2.58000000	         -0.33786622	         -0.45665704	          0.63303082	
          2.59000000	         -0.33178707	         -0.44933755	          0.63012572	
          2.60000000	         -0.32604151	         -0.44203233	          0.62749822	
          2.61000000	         -0.32062566	         -0.43483000	          0.62510710	
          2.62000000	         -0.31553196	         -0.42780608	          0.62291439	
          2.63000000	         -0.31074637	         -0.42101968	          0.62088768	
          2.64000000	         -0.30624646	         -0.41451134	          0.61900097	
          2.65000000	         -0.30200043	         -0.40830260	          0.61723391	
          2.66000000	         -0.29796687	         -0.40239759	          0.61557012	
          2.67000000	         -0.29409536	         -0.39678636	          0.61399506	
          2.68000000	         -0.29032769	         -0.39144887	          0.61249427	
          2.69000000	         -0.28659978	         -0.38635871	          0.61105224	
          2.70000000	         -0.28284435	         -0.38148603	          0.60965207	
